<svg width="512" height="512" viewBox="0 0 512 512" fill="none" xmlns="http://www.w3.org/2000/svg">
  <rect width="512" height="512" rx="64" fill="#ffc4f1"/>
  <rect x="32" y="32" width="448" height="448" rx="32" fill="#fff" stroke="#000" stroke-width="4" stroke-opacity="0.1"/>
  
  <!-- タイルのパターン -->
  <rect x="64" y="64" width="96" height="96" rx="12" fill="#ffc4f1" opacity="0.8"/>
  <rect x="176" y="64" width="96" height="96" rx="12" fill="#fffbb5" opacity="0.8"/>
  <rect x="288" y="64" width="96" height="96" rx="12" fill="#a6e2ff" opacity="0.8"/>
  <rect x="400" y="64" width="96" height="96" rx="12" fill="#dbc9ff" opacity="0.8"/>
  
  <rect x="64" y="176" width="96" height="96" rx="12" fill="#a6ffe4" opacity="0.8"/>
  <rect x="176" y="176" width="96" height="96" rx="12" fill="#ffc4f1" opacity="0.8"/>
  <rect x="288" y="176" width="96" height="96" rx="12" fill="#fffbb5" opacity="0.8"/>
  <rect x="400" y="176" width="96" height="96" rx="12" fill="#a6e2ff" opacity="0.8"/>
  
  <rect x="64" y="288" width="96" height="96" rx="12" fill="#dbc9ff" opacity="0.8"/>
  <rect x="176" y="288" width="96" height="96" rx="12" fill="#a6ffe4" opacity="0.8"/>
  <rect x="288" y="288" width="96" height="96" rx="12" fill="#ffc4f1" opacity="0.8"/>
  <rect x="400" y="288" width="96" height="96" rx="12" fill="#fffbb5" opacity="0.8"/>
  
  <rect x="64" y="400" width="96" height="96" rx="12" fill="#a6e2ff" opacity="0.8"/>
  <rect x="176" y="400" width="96" height="96" rx="12" fill="#dbc9ff" opacity="0.8"/>
  <rect x="288" y="400" width="96" height="96" rx="12" fill="#a6ffe4" opacity="0.8"/>
  <rect x="400" y="400" width="96" height="96" rx="12" fill="#ffc4f1" opacity="0.8"/>
  
  <!-- 中央のT文字 -->
  <text x="256" y="300" font-family="Arial, sans-serif" font-size="128" font-weight="bold" text-anchor="middle" fill="#333">T</text>
</svg>
